<svg xmlns="http://www.w3.org/2000/svg" viewBox="0 0 900 220" width="900" height="220">
  <defs>
    <!-- Left edge fade -->
    <linearGradient id="fade-left" x1="0%" y1="0%" x2="100%" y2="0%">
      <stop offset="0%" stop-color="#050816" stop-opacity="1"/>
      <stop offset="100%" stop-color="#050816" stop-opacity="0"/>
    </linearGradient>
    <!-- Right edge fade -->
    <linearGradient id="fade-right" x1="0%" y1="0%" x2="100%" y2="0%">
      <stop offset="0%" stop-color="#050816" stop-opacity="0"/>
      <stop offset="100%" stop-color="#050816" stop-opacity="1"/>
    </linearGradient>
  </defs>
  <style>
    .bg {
      fill: #050816;
      stroke: rgba(0, 229, 255, 0.06);
      stroke-width: 1;
    }

    /* ═══ Marquee animations ═══ */
    @keyframes slide-left {
      0% { transform: translateX(0); }
      100% { transform: translateX(-960px); }
    }
    @keyframes slide-right {
      0% { transform: translateX(-960px); }
      100% { transform: translateX(0); }
    }

    .row-1 { animation: slide-left 45s linear infinite; }
    .row-2 { animation: slide-right 50s linear infinite; }
    .row-3 { animation: slide-left 48s linear infinite; }

    /* Card styling */
    .card-bg {
      fill: rgba(255, 255, 255, 0.02);
      stroke: rgba(255, 255, 255, 0.04);
      stroke-width: 0.8;
      rx: 6;
    }

    .card-name {
      font-family: 'Segoe UI', system-ui, -apple-system, sans-serif;
      font-size: 10px;
      font-weight: 600;
      fill: #e0e0e8;
    }

    .card-desc {
      font-family: 'Segoe UI', system-ui, -apple-system, sans-serif;
      font-size: 7.5px;
      fill: #6a6a82;
    }

    .card-accent {
      rx: 2;
    }
  </style>

  <rect class="bg" width="900" height="220" rx="12" />

  <!-- Clip region for the scrolling content -->
  <clipPath id="scroll-clip">
    <rect x="0" y="0" width="900" height="220" rx="12"/>
  </clipPath>

  <g clip-path="url(#scroll-clip)">

    <!-- ═══ ROW 1: Languages (→ left) ═══ -->
    <g transform="translate(0, 18)">
      <g class="row-1">
        <!-- Set 1 -->
        <g transform="translate(0, 0)">
          <!-- Python -->
          <g transform="translate(0, 0)">
            <rect class="card-bg" x="0" y="0" width="148" height="44"/>
            <rect class="card-accent" x="0" y="0" width="3" height="44" fill="#3776AB"/>
            <svg viewBox="0 0 24 24" x="12" y="12" width="20" height="20"><rect width="24" height="24" fill="#3776AB" rx="4"/><text x="12" y="17" text-anchor="middle" fill="#FFD43B" font-size="14" font-weight="bold" font-family="sans-serif">Py</text></svg>
            <text class="card-name" x="40" y="20">Python</text>
            <text class="card-desc" x="40" y="33">General scripting language</text>
          </g>
          <!-- Java -->
          <g transform="translate(160, 0)">
            <rect class="card-bg" x="0" y="0" width="148" height="44"/>
            <rect class="card-accent" x="0" y="0" width="3" height="44" fill="#EA2D42"/>
            <svg viewBox="0 0 24 24" x="12" y="12" width="20" height="20"><rect width="24" height="24" fill="#EA2D42" rx="4"/><text x="12" y="17" text-anchor="middle" fill="#fff" font-size="12" font-weight="bold" font-family="serif">J</text></svg>
            <text class="card-name" x="40" y="20">Java</text>
            <text class="card-desc" x="40" y="33">Robust object platform</text>
          </g>
          <!-- JavaScript -->
          <g transform="translate(320, 0)">
            <rect class="card-bg" x="0" y="0" width="148" height="44"/>
            <rect class="card-accent" x="0" y="0" width="3" height="44" fill="#F7DF1E"/>
            <svg viewBox="0 0 24 24" x="12" y="12" width="20" height="20"><rect width="24" height="24" fill="#F7DF1E" rx="4"/><text x="12" y="17" text-anchor="middle" fill="#000" font-size="12" font-weight="bold" font-family="sans-serif">JS</text></svg>
            <text class="card-name" x="40" y="20">JavaScript</text>
            <text class="card-desc" x="40" y="33">Dynamic web functionality</text>
          </g>
          <!-- HTML5 -->
          <g transform="translate(480, 0)">
            <rect class="card-bg" x="0" y="0" width="148" height="44"/>
            <rect class="card-accent" x="0" y="0" width="3" height="44" fill="#E34F26"/>
            <svg viewBox="0 0 24 24" x="12" y="12" width="20" height="20"><rect width="24" height="24" fill="#E34F26" rx="4"/><text x="12" y="17" text-anchor="middle" fill="#fff" font-size="10" font-weight="bold" font-family="sans-serif">H5</text></svg>
            <text class="card-name" x="40" y="20">HTML5</text>
            <text class="card-desc" x="40" y="33">Standard markup structures</text>
          </g>
          <!-- CSS3 -->
          <g transform="translate(640, 0)">
            <rect class="card-bg" x="0" y="0" width="148" height="44"/>
            <rect class="card-accent" x="0" y="0" width="3" height="44" fill="#1572B6"/>
            <svg viewBox="0 0 24 24" x="12" y="12" width="20" height="20"><rect width="24" height="24" fill="#1572B6" rx="4"/><text x="12" y="17" text-anchor="middle" fill="#fff" font-size="10" font-weight="bold" font-family="sans-serif">C3</text></svg>
            <text class="card-name" x="40" y="20">CSS3</text>
            <text class="card-desc" x="40" y="33">Styling layout syntax</text>
          </g>
          <!-- SQL -->
          <g transform="translate(800, 0)">
            <rect class="card-bg" x="0" y="0" width="148" height="44"/>
            <rect class="card-accent" x="0" y="0" width="3" height="44" fill="#336791"/>
            <svg viewBox="0 0 24 24" x="12" y="12" width="20" height="20"><rect width="24" height="24" fill="#336791" rx="4"/><text x="12" y="17" text-anchor="middle" fill="#fff" font-size="10" font-weight="bold" font-family="monospace">SQL</text></svg>
            <text class="card-name" x="40" y="20">SQL</text>
            <text class="card-desc" x="40" y="33">Relational data queries</text>
          </g>
        </g>
        <!-- Set 2 (duplicate for seamless loop) -->
        <g transform="translate(960, 0)">
          <g transform="translate(0, 0)">
            <rect class="card-bg" x="0" y="0" width="148" height="44"/>
            <rect class="card-accent" x="0" y="0" width="3" height="44" fill="#3776AB"/>
            <svg viewBox="0 0 24 24" x="12" y="12" width="20" height="20"><rect width="24" height="24" fill="#3776AB" rx="4"/><text x="12" y="17" text-anchor="middle" fill="#FFD43B" font-size="14" font-weight="bold" font-family="sans-serif">Py</text></svg>
            <text class="card-name" x="40" y="20">Python</text>
            <text class="card-desc" x="40" y="33">General scripting language</text>
          </g>
          <g transform="translate(160, 0)">
            <rect class="card-bg" x="0" y="0" width="148" height="44"/>
            <rect class="card-accent" x="0" y="0" width="3" height="44" fill="#EA2D42"/>
            <svg viewBox="0 0 24 24" x="12" y="12" width="20" height="20"><rect width="24" height="24" fill="#EA2D42" rx="4"/><text x="12" y="17" text-anchor="middle" fill="#fff" font-size="12" font-weight="bold" font-family="serif">J</text></svg>
            <text class="card-name" x="40" y="20">Java</text>
            <text class="card-desc" x="40" y="33">Robust object platform</text>
          </g>
          <g transform="translate(320, 0)">
            <rect class="card-bg" x="0" y="0" width="148" height="44"/>
            <rect class="card-accent" x="0" y="0" width="3" height="44" fill="#F7DF1E"/>
            <svg viewBox="0 0 24 24" x="12" y="12" width="20" height="20"><rect width="24" height="24" fill="#F7DF1E" rx="4"/><text x="12" y="17" text-anchor="middle" fill="#000" font-size="12" font-weight="bold" font-family="sans-serif">JS</text></svg>
            <text class="card-name" x="40" y="20">JavaScript</text>
            <text class="card-desc" x="40" y="33">Dynamic web functionality</text>
          </g>
          <g transform="translate(480, 0)">
            <rect class="card-bg" x="0" y="0" width="148" height="44"/>
            <rect class="card-accent" x="0" y="0" width="3" height="44" fill="#E34F26"/>
            <svg viewBox="0 0 24 24" x="12" y="12" width="20" height="20"><rect width="24" height="24" fill="#E34F26" rx="4"/><text x="12" y="17" text-anchor="middle" fill="#fff" font-size="10" font-weight="bold" font-family="sans-serif">H5</text></svg>
            <text class="card-name" x="40" y="20">HTML5</text>
            <text class="card-desc" x="40" y="33">Standard markup structures</text>
          </g>
          <g transform="translate(640, 0)">
            <rect class="card-bg" x="0" y="0" width="148" height="44"/>
            <rect class="card-accent" x="0" y="0" width="3" height="44" fill="#1572B6"/>
            <svg viewBox="0 0 24 24" x="12" y="12" width="20" height="20"><rect width="24" height="24" fill="#1572B6" rx="4"/><text x="12" y="17" text-anchor="middle" fill="#fff" font-size="10" font-weight="bold" font-family="sans-serif">C3</text></svg>
            <text class="card-name" x="40" y="20">CSS3</text>
            <text class="card-desc" x="40" y="33">Styling layout syntax</text>
          </g>
          <g transform="translate(800, 0)">
            <rect class="card-bg" x="0" y="0" width="148" height="44"/>
            <rect class="card-accent" x="0" y="0" width="3" height="44" fill="#336791"/>
            <svg viewBox="0 0 24 24" x="12" y="12" width="20" height="20"><rect width="24" height="24" fill="#336791" rx="4"/><text x="12" y="17" text-anchor="middle" fill="#fff" font-size="10" font-weight="bold" font-family="monospace">SQL</text></svg>
            <text class="card-name" x="40" y="20">SQL</text>
            <text class="card-desc" x="40" y="33">Relational data queries</text>
          </g>
        </g>
      </g>
    </g>

    <!-- ═══ ROW 2: Frameworks & Libraries (→ right) ═══ -->
    <g transform="translate(0, 78)">
      <g class="row-2">
        <!-- Set 1 -->
        <g transform="translate(0, 0)">
          <!-- FastAPI -->
          <g transform="translate(0, 0)">
            <rect class="card-bg" x="0" y="0" width="148" height="44"/>
            <rect class="card-accent" x="0" y="0" width="3" height="44" fill="#009688"/>
            <svg viewBox="0 0 24 24" x="12" y="12" width="20" height="20"><circle cx="12" cy="12" r="12" fill="#009688"/><text x="12" y="16" text-anchor="middle" fill="#fff" font-size="10" font-weight="bold" font-family="sans-serif">⚡</text></svg>
            <text class="card-name" x="40" y="20">FastAPI</text>
            <text class="card-desc" x="40" y="33">High performance API</text>
          </g>
          <!-- Flask -->
          <g transform="translate(160, 0)">
            <rect class="card-bg" x="0" y="0" width="148" height="44"/>
            <rect class="card-accent" x="0" y="0" width="3" height="44" fill="#00FF88"/>
            <svg viewBox="0 0 24 24" x="12" y="12" width="20" height="20"><rect width="24" height="24" fill="#1a1a1a" rx="4"/><text x="12" y="17" text-anchor="middle" fill="#00FF88" font-size="12" font-weight="bold" font-family="sans-serif">Fl</text></svg>
            <text class="card-name" x="40" y="20">Flask</text>
            <text class="card-desc" x="40" y="33">Lightweight python backend</text>
          </g>
          <!-- Spring Boot -->
          <g transform="translate(320, 0)">
            <rect class="card-bg" x="0" y="0" width="148" height="44"/>
            <rect class="card-accent" x="0" y="0" width="3" height="44" fill="#6DB33F"/>
            <svg viewBox="0 0 24 24" x="12" y="12" width="20" height="20"><circle cx="12" cy="12" r="12" fill="#6DB33F"/><text x="12" y="16" text-anchor="middle" fill="#fff" font-size="10" font-weight="bold" font-family="sans-serif">SB</text></svg>
            <text class="card-name" x="40" y="20">Spring Boot</text>
            <text class="card-desc" x="40" y="33">Enterprise microservices</text>
          </g>
          <!-- React -->
          <g transform="translate(480, 0)">
            <rect class="card-bg" x="0" y="0" width="148" height="44"/>
            <rect class="card-accent" x="0" y="0" width="3" height="44" fill="#61DAFB"/>
            <svg viewBox="0 0 24 24" x="12" y="12" width="20" height="20"><rect width="24" height="24" fill="#1a1a2e" rx="4"/><circle cx="12" cy="12" r="3" fill="#61DAFB"/><ellipse cx="12" cy="12" rx="10" ry="4" fill="none" stroke="#61DAFB" stroke-width="1"/></svg>
            <text class="card-name" x="40" y="20">React</text>
            <text class="card-desc" x="40" y="33">Component user interfaces</text>
          </g>
          <!-- Vite -->
          <g transform="translate(640, 0)">
            <rect class="card-bg" x="0" y="0" width="148" height="44"/>
            <rect class="card-accent" x="0" y="0" width="3" height="44" fill="#BD34FE"/>
            <svg viewBox="0 0 24 24" x="12" y="12" width="20" height="20"><rect width="24" height="24" fill="#1a1a2e" rx="4"/><text x="12" y="17" text-anchor="middle" fill="#BD34FE" font-size="10" font-weight="bold" font-family="sans-serif">⚡V</text></svg>
            <text class="card-name" x="40" y="20">Vite</text>
            <text class="card-desc" x="40" y="33">Fast build tool</text>
          </g>
          <!-- TailwindCSS -->
          <g transform="translate(800, 0)">
            <rect class="card-bg" x="0" y="0" width="148" height="44"/>
            <rect class="card-accent" x="0" y="0" width="3" height="44" fill="#38B2AC"/>
            <svg viewBox="0 0 24 24" x="12" y="12" width="20" height="20"><rect width="24" height="24" fill="#0f172a" rx="4"/><text x="12" y="17" text-anchor="middle" fill="#38B2AC" font-size="10" font-weight="bold" font-family="sans-serif">Tw</text></svg>
            <text class="card-name" x="40" y="20">TailwindCSS</text>
            <text class="card-desc" x="40" y="33">Utility CSS classes</text>
          </g>
        </g>
        <!-- Set 2 (duplicate) -->
        <g transform="translate(960, 0)">
          <g transform="translate(0, 0)">
            <rect class="card-bg" x="0" y="0" width="148" height="44"/>
            <rect class="card-accent" x="0" y="0" width="3" height="44" fill="#009688"/>
            <svg viewBox="0 0 24 24" x="12" y="12" width="20" height="20"><circle cx="12" cy="12" r="12" fill="#009688"/><text x="12" y="16" text-anchor="middle" fill="#fff" font-size="10" font-weight="bold" font-family="sans-serif">⚡</text></svg>
            <text class="card-name" x="40" y="20">FastAPI</text>
            <text class="card-desc" x="40" y="33">High performance API</text>
          </g>
          <g transform="translate(160, 0)">
            <rect class="card-bg" x="0" y="0" width="148" height="44"/>
            <rect class="card-accent" x="0" y="0" width="3" height="44" fill="#00FF88"/>
            <svg viewBox="0 0 24 24" x="12" y="12" width="20" height="20"><rect width="24" height="24" fill="#1a1a1a" rx="4"/><text x="12" y="17" text-anchor="middle" fill="#00FF88" font-size="12" font-weight="bold" font-family="sans-serif">Fl</text></svg>
            <text class="card-name" x="40" y="20">Flask</text>
            <text class="card-desc" x="40" y="33">Lightweight python backend</text>
          </g>
          <g transform="translate(320, 0)">
            <rect class="card-bg" x="0" y="0" width="148" height="44"/>
            <rect class="card-accent" x="0" y="0" width="3" height="44" fill="#6DB33F"/>
            <svg viewBox="0 0 24 24" x="12" y="12" width="20" height="20"><circle cx="12" cy="12" r="12" fill="#6DB33F"/><text x="12" y="16" text-anchor="middle" fill="#fff" font-size="10" font-weight="bold" font-family="sans-serif">SB</text></svg>
            <text class="card-name" x="40" y="20">Spring Boot</text>
            <text class="card-desc" x="40" y="33">Enterprise microservices</text>
          </g>
          <g transform="translate(480, 0)">
            <rect class="card-bg" x="0" y="0" width="148" height="44"/>
            <rect class="card-accent" x="0" y="0" width="3" height="44" fill="#61DAFB"/>
            <svg viewBox="0 0 24 24" x="12" y="12" width="20" height="20"><rect width="24" height="24" fill="#1a1a2e" rx="4"/><circle cx="12" cy="12" r="3" fill="#61DAFB"/><ellipse cx="12" cy="12" rx="10" ry="4" fill="none" stroke="#61DAFB" stroke-width="1"/></svg>
            <text class="card-name" x="40" y="20">React</text>
            <text class="card-desc" x="40" y="33">Component user interfaces</text>
          </g>
          <g transform="translate(640, 0)">
            <rect class="card-bg" x="0" y="0" width="148" height="44"/>
            <rect class="card-accent" x="0" y="0" width="3" height="44" fill="#BD34FE"/>
            <svg viewBox="0 0 24 24" x="12" y="12" width="20" height="20"><rect width="24" height="24" fill="#1a1a2e" rx="4"/><text x="12" y="17" text-anchor="middle" fill="#BD34FE" font-size="10" font-weight="bold" font-family="sans-serif">⚡V</text></svg>
            <text class="card-name" x="40" y="20">Vite</text>
            <text class="card-desc" x="40" y="33">Fast build tool</text>
          </g>
          <g transform="translate(800, 0)">
            <rect class="card-bg" x="0" y="0" width="148" height="44"/>
            <rect class="card-accent" x="0" y="0" width="3" height="44" fill="#38B2AC"/>
            <svg viewBox="0 0 24 24" x="12" y="12" width="20" height="20"><rect width="24" height="24" fill="#0f172a" rx="4"/><text x="12" y="17" text-anchor="middle" fill="#38B2AC" font-size="10" font-weight="bold" font-family="sans-serif">Tw</text></svg>
            <text class="card-name" x="40" y="20">TailwindCSS</text>
            <text class="card-desc" x="40" y="33">Utility CSS classes</text>
          </g>
        </g>
      </g>
    </g>

    <!-- ═══ ROW 3: Tools & Data (→ left) ═══ -->
    <g transform="translate(0, 138)">
      <g class="row-3">
        <!-- Set 1 -->
        <g transform="translate(0, 0)">
          <!-- MySQL -->
          <g transform="translate(0, 0)">
            <rect class="card-bg" x="0" y="0" width="148" height="44"/>
            <rect class="card-accent" x="0" y="0" width="3" height="44" fill="#00758F"/>
            <svg viewBox="0 0 24 24" x="12" y="12" width="20" height="20"><rect width="24" height="24" fill="#00758F" rx="4"/><text x="12" y="17" text-anchor="middle" fill="#F29111" font-size="9" font-weight="bold" font-family="monospace">My</text></svg>
            <text class="card-name" x="40" y="20">MySQL</text>
            <text class="card-desc" x="40" y="33">Popular database system</text>
          </g>
          <!-- NumPy -->
          <g transform="translate(160, 0)">
            <rect class="card-bg" x="0" y="0" width="148" height="44"/>
            <rect class="card-accent" x="0" y="0" width="3" height="44" fill="#4DABCF"/>
            <svg viewBox="0 0 24 24" x="12" y="12" width="20" height="20"><rect width="24" height="24" fill="#013243" rx="4"/><text x="12" y="17" text-anchor="middle" fill="#4DABCF" font-size="10" font-weight="bold" font-family="sans-serif">Np</text></svg>
            <text class="card-name" x="40" y="20">NumPy</text>
            <text class="card-desc" x="40" y="33">Scientific computation</text>
          </g>
          <!-- Git -->
          <g transform="translate(320, 0)">
            <rect class="card-bg" x="0" y="0" width="148" height="44"/>
            <rect class="card-accent" x="0" y="0" width="3" height="44" fill="#F05032"/>
            <svg viewBox="0 0 24 24" x="12" y="12" width="20" height="20"><rect width="24" height="24" fill="#F05032" rx="4"/><text x="12" y="17" text-anchor="middle" fill="#fff" font-size="10" font-weight="bold" font-family="sans-serif">Git</text></svg>
            <text class="card-name" x="40" y="20">Git</text>
            <text class="card-desc" x="40" y="33">Version control branch</text>
          </g>
          <!-- GitHub -->
          <g transform="translate(480, 0)">
            <rect class="card-bg" x="0" y="0" width="148" height="44"/>
            <rect class="card-accent" x="0" y="0" width="3" height="44" fill="#8b949e"/>
            <svg viewBox="0 0 24 24" x="12" y="12" width="20" height="20"><rect width="24" height="24" fill="#161b22" rx="4"/><text x="12" y="17" text-anchor="middle" fill="#fff" font-size="10" font-weight="bold" font-family="sans-serif">GH</text></svg>
            <text class="card-name" x="40" y="20">GitHub</text>
            <text class="card-desc" x="40" y="33">Repository central host</text>
          </g>
          <!-- Node.js -->
          <g transform="translate(640, 0)">
            <rect class="card-bg" x="0" y="0" width="148" height="44"/>
            <rect class="card-accent" x="0" y="0" width="3" height="44" fill="#339933"/>
            <svg viewBox="0 0 24 24" x="12" y="12" width="20" height="20"><rect width="24" height="24" fill="#339933" rx="4"/><text x="12" y="17" text-anchor="middle" fill="#fff" font-size="9" font-weight="bold" font-family="sans-serif">NJ</text></svg>
            <text class="card-name" x="40" y="20">Node.js</text>
            <text class="card-desc" x="40" y="33">Runtime JS backend</text>
          </g>
          <!-- Figma -->
          <g transform="translate(800, 0)">
            <rect class="card-bg" x="0" y="0" width="148" height="44"/>
            <rect class="card-accent" x="0" y="0" width="3" height="44" fill="#F24E1E"/>
            <svg viewBox="0 0 24 24" x="12" y="12" width="20" height="20"><rect width="24" height="24" fill="#2c2c2c" rx="4"/><text x="12" y="17" text-anchor="middle" fill="#F24E1E" font-size="10" font-weight="bold" font-family="sans-serif">Fi</text></svg>
            <text class="card-name" x="40" y="20">Figma</text>
            <text class="card-desc" x="40" y="33">UI design prototype tool</text>
          </g>
        </g>
        <!-- Set 2 (duplicate) -->
        <g transform="translate(960, 0)">
          <g transform="translate(0, 0)">
            <rect class="card-bg" x="0" y="0" width="148" height="44"/>
            <rect class="card-accent" x="0" y="0" width="3" height="44" fill="#00758F"/>
            <svg viewBox="0 0 24 24" x="12" y="12" width="20" height="20"><rect width="24" height="24" fill="#00758F" rx="4"/><text x="12" y="17" text-anchor="middle" fill="#F29111" font-size="9" font-weight="bold" font-family="monospace">My</text></svg>
            <text class="card-name" x="40" y="20">MySQL</text>
            <text class="card-desc" x="40" y="33">Popular database system</text>
          </g>
          <g transform="translate(160, 0)">
            <rect class="card-bg" x="0" y="0" width="148" height="44"/>
            <rect class="card-accent" x="0" y="0" width="3" height="44" fill="#4DABCF"/>
            <svg viewBox="0 0 24 24" x="12" y="12" width="20" height="20"><rect width="24" height="24" fill="#013243" rx="4"/><text x="12" y="17" text-anchor="middle" fill="#4DABCF" font-size="10" font-weight="bold" font-family="sans-serif">Np</text></svg>
            <text class="card-name" x="40" y="20">NumPy</text>
            <text class="card-desc" x="40" y="33">Scientific computation</text>
          </g>
          <g transform="translate(320, 0)">
            <rect class="card-bg" x="0" y="0" width="148" height="44"/>
            <rect class="card-accent" x="0" y="0" width="3" height="44" fill="#F05032"/>
            <svg viewBox="0 0 24 24" x="12" y="12" width="20" height="20"><rect width="24" height="24" fill="#F05032" rx="4"/><text x="12" y="17" text-anchor="middle" fill="#fff" font-size="10" font-weight="bold" font-family="sans-serif">Git</text></svg>
            <text class="card-name" x="40" y="20">Git</text>
            <text class="card-desc" x="40" y="33">Version control branch</text>
          </g>
          <g transform="translate(480, 0)">
            <rect class="card-bg" x="0" y="0" width="148" height="44"/>
            <rect class="card-accent" x="0" y="0" width="3" height="44" fill="#8b949e"/>
            <svg viewBox="0 0 24 24" x="12" y="12" width="20" height="20"><rect width="24" height="24" fill="#161b22" rx="4"/><text x="12" y="17" text-anchor="middle" fill="#fff" font-size="10" font-weight="bold" font-family="sans-serif">GH</text></svg>
            <text class="card-name" x="40" y="20">GitHub</text>
            <text class="card-desc" x="40" y="33">Repository central host</text>
          </g>
          <g transform="translate(640, 0)">
            <rect class="card-bg" x="0" y="0" width="148" height="44"/>
            <rect class="card-accent" x="0" y="0" width="3" height="44" fill="#339933"/>
            <svg viewBox="0 0 24 24" x="12" y="12" width="20" height="20"><rect width="24" height="24" fill="#339933" rx="4"/><text x="12" y="17" text-anchor="middle" fill="#fff" font-size="9" font-weight="bold" font-family="sans-serif">NJ</text></svg>
            <text class="card-name" x="40" y="20">Node.js</text>
            <text class="card-desc" x="40" y="33">Runtime JS backend</text>
          </g>
          <g transform="translate(800, 0)">
            <rect class="card-bg" x="0" y="0" width="148" height="44"/>
            <rect class="card-accent" x="0" y="0" width="3" height="44" fill="#F24E1E"/>
            <svg viewBox="0 0 24 24" x="12" y="12" width="20" height="20"><rect width="24" height="24" fill="#2c2c2c" rx="4"/><text x="12" y="17" text-anchor="middle" fill="#F24E1E" font-size="10" font-weight="bold" font-family="sans-serif">Fi</text></svg>
            <text class="card-name" x="40" y="20">Figma</text>
            <text class="card-desc" x="40" y="33">UI design prototype tool</text>
          </g>
        </g>
      </g>
    </g>
  </g>

  <!-- Edge fade overlays -->
  <rect x="0" y="0" width="80" height="220" fill="url(#fade-left)" rx="12"/>
  <rect x="820" y="0" width="80" height="220" fill="url(#fade-right)" rx="12"/>
</svg>
