<svg xmlns="http://www.w3.org/2000/svg" viewBox="0 0 900 220" width="900" height="220">
  <style>
    .bg { fill: #050816; }
    
    /* Base inactive cubes */
    .cube {
      fill: #060919;
      stroke: rgba(0, 229, 255, 0.06);
      stroke-width: 1.2;
      rx: 3px;
    }

    /* Standard animations loop */
    @keyframes breathe {
      0%, 100% { stroke: rgba(0, 229, 255, 0.05); }
      50% { stroke: rgba(0, 229, 255, 0.15); }
    }
    
    @keyframes signal-run {
      0% { fill: #060919; stroke: rgba(0, 229, 255, 0.06); }
      5% { fill: rgba(103, 232, 249, 0.2); stroke: #67E8F9; }
      15%, 100% { fill: #060919; stroke: rgba(0, 229, 255, 0.06); }
    }

    @keyframes reveal-name {
      0%, 40% { stroke: rgba(0, 229, 255, 0.06); fill: #060919; }
      55%, 100% { stroke: #00E5FF; fill: rgba(0, 229, 255, 0.08); }
    }

    @keyframes active-shimmer {
      0%, 70%, 100% { filter: drop-shadow(0 0 4px rgba(0, 229, 255, 0.45)); }
      85% { filter: drop-shadow(0 0 8px rgba(0, 229, 255, 0.85)); }
    }

    .cube {
      animation: breathe 4s infinite ease-in-out;
    }

    /* Assigning multi-stage timeline animation */
    .active {
      animation: reveal-name 8s infinite ease-in-out,
                 active-shimmer 8s infinite ease-in-out;
    }

    /* Staggered delays for the name letter discovery effect */
    .col-2, .col-3, .col-4, .col-5, .col-6, .col-7 { animation-delay: 0s, 0s; }
    .col-9, .col-10, .col-11, .col-12, .col-13, .col-14 { animation-delay: 0.3s, 0.3s; }
    .col-16, .col-17, .col-18, .col-19, .col-20, .col-21 { animation-delay: 0.6s, 0.6s; }
    .col-23, .col-24, .col-25, .col-26, .col-27, .col-28 { animation-delay: 0.9s, 0.9s; }
    .col-30, .col-31, .col-32, .col-33, .col-34, .col-35 { animation-delay: 1.2s, 1.2s; }
  </style>
  <rect class="bg" width="900" height="220" rx="12" />
  
  <g transform="translate(18, 18)">
    <rect class="cube" x="0" y="0" width="18" height="18" />
    <rect class="cube" x="23" y="0" width="18" height="18" />
    <rect class="cube" x="46" y="0" width="18" height="18" />
    <rect class="cube" x="69" y="0" width="18" height="18" />
    <rect class="cube" x="92" y="0" width="18" height="18" />
    <rect class="cube" x="115" y="0" width="18" height="18" />
    <rect class="cube" x="138" y="0" width="18" height="18" />
    <rect class="cube" x="161" y="0" width="18" height="18" />
    <rect class="cube" x="184" y="0" width="18" height="18" />
    <rect class="cube" x="207" y="0" width="18" height="18" />
    <rect class="cube" x="230" y="0" width="18" height="18" />
    <rect class="cube" x="253" y="0" width="18" height="18" />
    <rect class="cube" x="276" y="0" width="18" height="18" />
    <rect class="cube" x="299" y="0" width="18" height="18" />
    <rect class="cube" x="322" y="0" width="18" height="18" />
    <rect class="cube" x="345" y="0" width="18" height="18" />
    <rect class="cube" x="368" y="0" width="18" height="18" />
    <rect class="cube" x="391" y="0" width="18" height="18" />
    <rect class="cube" x="414" y="0" width="18" height="18" />
    <rect class="cube" x="437" y="0" width="18" height="18" />
    <rect class="cube" x="460" y="0" width="18" height="18" />
    <rect class="cube" x="483" y="0" width="18" height="18" />
    <rect class="cube" x="506" y="0" width="18" height="18" />
    <rect class="cube" x="529" y="0" width="18" height="18" />
    <rect class="cube" x="552" y="0" width="18" height="18" />
    <rect class="cube" x="575" y="0" width="18" height="18" />
    <rect class="cube" x="598" y="0" width="18" height="18" />
    <rect class="cube" x="621" y="0" width="18" height="18" />
    <rect class="cube" x="644" y="0" width="18" height="18" />
    <rect class="cube" x="667" y="0" width="18" height="18" />
    <rect class="cube" x="690" y="0" width="18" height="18" />
    <rect class="cube" x="713" y="0" width="18" height="18" />
    <rect class="cube" x="736" y="0" width="18" height="18" />
    <rect class="cube" x="759" y="0" width="18" height="18" />
    <rect class="cube" x="782" y="0" width="18" height="18" />
    <rect class="cube" x="805" y="0" width="18" height="18" />
    <rect class="cube" x="828" y="0" width="18" height="18" />
    <rect class="cube" x="851" y="0" width="18" height="18" />
    <rect class="cube" x="0" y="23" width="18" height="18" />
    <rect class="cube" x="23" y="23" width="18" height="18" />
    <rect class="cube" x="46" y="23" width="18" height="18" />
    <rect class="cube" x="69" y="23" width="18" height="18" />
    <rect class="cube active col-4" x="92" y="23" width="18" height="18" />
    <rect class="cube active col-5" x="115" y="23" width="18" height="18" />
    <rect class="cube" x="138" y="23" width="18" height="18" />
    <rect class="cube" x="161" y="23" width="18" height="18" />
    <rect class="cube" x="184" y="23" width="18" height="18" />
    <rect class="cube active col-9" x="207" y="23" width="18" height="18" />
    <rect class="cube active col-10" x="230" y="23" width="18" height="18" />
    <rect class="cube active col-11" x="253" y="23" width="18" height="18" />
    <rect class="cube active col-12" x="276" y="23" width="18" height="18" />
    <rect class="cube active col-13" x="299" y="23" width="18" height="18" />
    <rect class="cube" x="322" y="23" width="18" height="18" />
    <rect class="cube" x="345" y="23" width="18" height="18" />
    <rect class="cube active col-16" x="368" y="23" width="18" height="18" />
    <rect class="cube active col-17" x="391" y="23" width="18" height="18" />
    <rect class="cube" x="414" y="23" width="18" height="18" />
    <rect class="cube" x="437" y="23" width="18" height="18" />
    <rect class="cube active col-20" x="460" y="23" width="18" height="18" />
    <rect class="cube active col-21" x="483" y="23" width="18" height="18" />
    <rect class="cube" x="506" y="23" width="18" height="18" />
    <rect class="cube" x="529" y="23" width="18" height="18" />
    <rect class="cube" x="552" y="23" width="18" height="18" />
    <rect class="cube active col-25" x="575" y="23" width="18" height="18" />
    <rect class="cube active col-26" x="598" y="23" width="18" height="18" />
    <rect class="cube" x="621" y="23" width="18" height="18" />
    <rect class="cube" x="644" y="23" width="18" height="18" />
    <rect class="cube" x="667" y="23" width="18" height="18" />
    <rect class="cube active col-30" x="690" y="23" width="18" height="18" />
    <rect class="cube active col-31" x="713" y="23" width="18" height="18" />
    <rect class="cube" x="736" y="23" width="18" height="18" />
    <rect class="cube" x="759" y="23" width="18" height="18" />
    <rect class="cube active col-34" x="782" y="23" width="18" height="18" />
    <rect class="cube active col-35" x="805" y="23" width="18" height="18" />
    <rect class="cube" x="828" y="23" width="18" height="18" />
    <rect class="cube" x="851" y="23" width="18" height="18" />
    <rect class="cube" x="0" y="46" width="18" height="18" />
    <rect class="cube" x="23" y="46" width="18" height="18" />
    <rect class="cube" x="46" y="46" width="18" height="18" />
    <rect class="cube active col-3" x="69" y="46" width="18" height="18" />
    <rect class="cube active col-4" x="92" y="46" width="18" height="18" />
    <rect class="cube active col-5" x="115" y="46" width="18" height="18" />
    <rect class="cube active col-6" x="138" y="46" width="18" height="18" />
    <rect class="cube" x="161" y="46" width="18" height="18" />
    <rect class="cube" x="184" y="46" width="18" height="18" />
    <rect class="cube active col-9" x="207" y="46" width="18" height="18" />
    <rect class="cube active col-10" x="230" y="46" width="18" height="18" />
    <rect class="cube" x="253" y="46" width="18" height="18" />
    <rect class="cube" x="276" y="46" width="18" height="18" />
    <rect class="cube active col-13" x="299" y="46" width="18" height="18" />
    <rect class="cube active col-14" x="322" y="46" width="18" height="18" />
    <rect class="cube" x="345" y="46" width="18" height="18" />
    <rect class="cube active col-16" x="368" y="46" width="18" height="18" />
    <rect class="cube active col-17" x="391" y="46" width="18" height="18" />
    <rect class="cube" x="414" y="46" width="18" height="18" />
    <rect class="cube" x="437" y="46" width="18" height="18" />
    <rect class="cube active col-20" x="460" y="46" width="18" height="18" />
    <rect class="cube active col-21" x="483" y="46" width="18" height="18" />
    <rect class="cube" x="506" y="46" width="18" height="18" />
    <rect class="cube" x="529" y="46" width="18" height="18" />
    <rect class="cube active col-24" x="552" y="46" width="18" height="18" />
    <rect class="cube active col-25" x="575" y="46" width="18" height="18" />
    <rect class="cube active col-26" x="598" y="46" width="18" height="18" />
    <rect class="cube active col-27" x="621" y="46" width="18" height="18" />
    <rect class="cube" x="644" y="46" width="18" height="18" />
    <rect class="cube" x="667" y="46" width="18" height="18" />
    <rect class="cube active col-30" x="690" y="46" width="18" height="18" />
    <rect class="cube active col-31" x="713" y="46" width="18" height="18" />
    <rect class="cube active col-32" x="736" y="46" width="18" height="18" />
    <rect class="cube" x="759" y="46" width="18" height="18" />
    <rect class="cube active col-34" x="782" y="46" width="18" height="18" />
    <rect class="cube active col-35" x="805" y="46" width="18" height="18" />
    <rect class="cube" x="828" y="46" width="18" height="18" />
    <rect class="cube" x="851" y="46" width="18" height="18" />
    <rect class="cube" x="0" y="69" width="18" height="18" />
    <rect class="cube" x="23" y="69" width="18" height="18" />
    <rect class="cube active col-2" x="46" y="69" width="18" height="18" />
    <rect class="cube active col-3" x="69" y="69" width="18" height="18" />
    <rect class="cube" x="92" y="69" width="18" height="18" />
    <rect class="cube" x="115" y="69" width="18" height="18" />
    <rect class="cube active col-6" x="138" y="69" width="18" height="18" />
    <rect class="cube active col-7" x="161" y="69" width="18" height="18" />
    <rect class="cube" x="184" y="69" width="18" height="18" />
    <rect class="cube active col-9" x="207" y="69" width="18" height="18" />
    <rect class="cube active col-10" x="230" y="69" width="18" height="18" />
    <rect class="cube" x="253" y="69" width="18" height="18" />
    <rect class="cube" x="276" y="69" width="18" height="18" />
    <rect class="cube active col-13" x="299" y="69" width="18" height="18" />
    <rect class="cube active col-14" x="322" y="69" width="18" height="18" />
    <rect class="cube" x="345" y="69" width="18" height="18" />
    <rect class="cube" x="368" y="69" width="18" height="18" />
    <rect class="cube active col-17" x="391" y="69" width="18" height="18" />
    <rect class="cube active col-18" x="414" y="69" width="18" height="18" />
    <rect class="cube active col-19" x="437" y="69" width="18" height="18" />
    <rect class="cube active col-20" x="460" y="69" width="18" height="18" />
    <rect class="cube" x="483" y="69" width="18" height="18" />
    <rect class="cube" x="506" y="69" width="18" height="18" />
    <rect class="cube active col-23" x="529" y="69" width="18" height="18" />
    <rect class="cube active col-24" x="552" y="69" width="18" height="18" />
    <rect class="cube" x="575" y="69" width="18" height="18" />
    <rect class="cube" x="598" y="69" width="18" height="18" />
    <rect class="cube active col-27" x="621" y="69" width="18" height="18" />
    <rect class="cube active col-28" x="644" y="69" width="18" height="18" />
    <rect class="cube" x="667" y="69" width="18" height="18" />
    <rect class="cube active col-30" x="690" y="69" width="18" height="18" />
    <rect class="cube active col-31" x="713" y="69" width="18" height="18" />
    <rect class="cube active col-32" x="736" y="69" width="18" height="18" />
    <rect class="cube active col-33" x="759" y="69" width="18" height="18" />
    <rect class="cube active col-34" x="782" y="69" width="18" height="18" />
    <rect class="cube active col-35" x="805" y="69" width="18" height="18" />
    <rect class="cube" x="828" y="69" width="18" height="18" />
    <rect class="cube" x="851" y="69" width="18" height="18" />
    <rect class="cube" x="0" y="92" width="18" height="18" />
    <rect class="cube" x="23" y="92" width="18" height="18" />
    <rect class="cube active col-2" x="46" y="92" width="18" height="18" />
    <rect class="cube active col-3" x="69" y="92" width="18" height="18" />
    <rect class="cube active col-4" x="92" y="92" width="18" height="18" />
    <rect class="cube active col-5" x="115" y="92" width="18" height="18" />
    <rect class="cube active col-6" x="138" y="92" width="18" height="18" />
    <rect class="cube active col-7" x="161" y="92" width="18" height="18" />
    <rect class="cube" x="184" y="92" width="18" height="18" />
    <rect class="cube active col-9" x="207" y="92" width="18" height="18" />
    <rect class="cube active col-10" x="230" y="92" width="18" height="18" />
    <rect class="cube active col-11" x="253" y="92" width="18" height="18" />
    <rect class="cube active col-12" x="276" y="92" width="18" height="18" />
    <rect class="cube active col-13" x="299" y="92" width="18" height="18" />
    <rect class="cube" x="322" y="92" width="18" height="18" />
    <rect class="cube" x="345" y="92" width="18" height="18" />
    <rect class="cube" x="368" y="92" width="18" height="18" />
    <rect class="cube" x="391" y="92" width="18" height="18" />
    <rect class="cube active col-18" x="414" y="92" width="18" height="18" />
    <rect class="cube active col-19" x="437" y="92" width="18" height="18" />
    <rect class="cube" x="460" y="92" width="18" height="18" />
    <rect class="cube" x="483" y="92" width="18" height="18" />
    <rect class="cube" x="506" y="92" width="18" height="18" />
    <rect class="cube active col-23" x="529" y="92" width="18" height="18" />
    <rect class="cube active col-24" x="552" y="92" width="18" height="18" />
    <rect class="cube active col-25" x="575" y="92" width="18" height="18" />
    <rect class="cube active col-26" x="598" y="92" width="18" height="18" />
    <rect class="cube active col-27" x="621" y="92" width="18" height="18" />
    <rect class="cube active col-28" x="644" y="92" width="18" height="18" />
    <rect class="cube" x="667" y="92" width="18" height="18" />
    <rect class="cube active col-30" x="690" y="92" width="18" height="18" />
    <rect class="cube active col-31" x="713" y="92" width="18" height="18" />
    <rect class="cube" x="736" y="92" width="18" height="18" />
    <rect class="cube active col-33" x="759" y="92" width="18" height="18" />
    <rect class="cube active col-34" x="782" y="92" width="18" height="18" />
    <rect class="cube active col-35" x="805" y="92" width="18" height="18" />
    <rect class="cube" x="828" y="92" width="18" height="18" />
    <rect class="cube" x="851" y="92" width="18" height="18" />
    <rect class="cube" x="0" y="115" width="18" height="18" />
    <rect class="cube" x="23" y="115" width="18" height="18" />
    <rect class="cube active col-2" x="46" y="115" width="18" height="18" />
    <rect class="cube active col-3" x="69" y="115" width="18" height="18" />
    <rect class="cube" x="92" y="115" width="18" height="18" />
    <rect class="cube" x="115" y="115" width="18" height="18" />
    <rect class="cube active col-6" x="138" y="115" width="18" height="18" />
    <rect class="cube active col-7" x="161" y="115" width="18" height="18" />
    <rect class="cube" x="184" y="115" width="18" height="18" />
    <rect class="cube active col-9" x="207" y="115" width="18" height="18" />
    <rect class="cube active col-10" x="230" y="115" width="18" height="18" />
    <rect class="cube" x="253" y="115" width="18" height="18" />
    <rect class="cube active col-12" x="276" y="115" width="18" height="18" />
    <rect class="cube active col-13" x="299" y="115" width="18" height="18" />
    <rect class="cube" x="322" y="115" width="18" height="18" />
    <rect class="cube" x="345" y="115" width="18" height="18" />
    <rect class="cube" x="368" y="115" width="18" height="18" />
    <rect class="cube" x="391" y="115" width="18" height="18" />
    <rect class="cube active col-18" x="414" y="115" width="18" height="18" />
    <rect class="cube active col-19" x="437" y="115" width="18" height="18" />
    <rect class="cube" x="460" y="115" width="18" height="18" />
    <rect class="cube" x="483" y="115" width="18" height="18" />
    <rect class="cube" x="506" y="115" width="18" height="18" />
    <rect class="cube active col-23" x="529" y="115" width="18" height="18" />
    <rect class="cube active col-24" x="552" y="115" width="18" height="18" />
    <rect class="cube" x="575" y="115" width="18" height="18" />
    <rect class="cube" x="598" y="115" width="18" height="18" />
    <rect class="cube active col-27" x="621" y="115" width="18" height="18" />
    <rect class="cube active col-28" x="644" y="115" width="18" height="18" />
    <rect class="cube" x="667" y="115" width="18" height="18" />
    <rect class="cube active col-30" x="690" y="115" width="18" height="18" />
    <rect class="cube active col-31" x="713" y="115" width="18" height="18" />
    <rect class="cube" x="736" y="115" width="18" height="18" />
    <rect class="cube" x="759" y="115" width="18" height="18" />
    <rect class="cube active col-34" x="782" y="115" width="18" height="18" />
    <rect class="cube active col-35" x="805" y="115" width="18" height="18" />
    <rect class="cube" x="828" y="115" width="18" height="18" />
    <rect class="cube" x="851" y="115" width="18" height="18" />
    <rect class="cube" x="0" y="138" width="18" height="18" />
    <rect class="cube" x="23" y="138" width="18" height="18" />
    <rect class="cube active col-2" x="46" y="138" width="18" height="18" />
    <rect class="cube active col-3" x="69" y="138" width="18" height="18" />
    <rect class="cube" x="92" y="138" width="18" height="18" />
    <rect class="cube" x="115" y="138" width="18" height="18" />
    <rect class="cube active col-6" x="138" y="138" width="18" height="18" />
    <rect class="cube active col-7" x="161" y="138" width="18" height="18" />
    <rect class="cube" x="184" y="138" width="18" height="18" />
    <rect class="cube active col-9" x="207" y="138" width="18" height="18" />
    <rect class="cube active col-10" x="230" y="138" width="18" height="18" />
    <rect class="cube" x="253" y="138" width="18" height="18" />
    <rect class="cube" x="276" y="138" width="18" height="18" />
    <rect class="cube active col-13" x="299" y="138" width="18" height="18" />
    <rect class="cube active col-14" x="322" y="138" width="18" height="18" />
    <rect class="cube" x="345" y="138" width="18" height="18" />
    <rect class="cube" x="368" y="138" width="18" height="18" />
    <rect class="cube" x="391" y="138" width="18" height="18" />
    <rect class="cube active col-18" x="414" y="138" width="18" height="18" />
    <rect class="cube active col-19" x="437" y="138" width="18" height="18" />
    <rect class="cube" x="460" y="138" width="18" height="18" />
    <rect class="cube" x="483" y="138" width="18" height="18" />
    <rect class="cube" x="506" y="138" width="18" height="18" />
    <rect class="cube active col-23" x="529" y="138" width="18" height="18" />
    <rect class="cube active col-24" x="552" y="138" width="18" height="18" />
    <rect class="cube" x="575" y="138" width="18" height="18" />
    <rect class="cube" x="598" y="138" width="18" height="18" />
    <rect class="cube active col-27" x="621" y="138" width="18" height="18" />
    <rect class="cube active col-28" x="644" y="138" width="18" height="18" />
    <rect class="cube" x="667" y="138" width="18" height="18" />
    <rect class="cube active col-30" x="690" y="138" width="18" height="18" />
    <rect class="cube active col-31" x="713" y="138" width="18" height="18" />
    <rect class="cube" x="736" y="138" width="18" height="18" />
    <rect class="cube" x="759" y="138" width="18" height="18" />
    <rect class="cube active col-34" x="782" y="138" width="18" height="18" />
    <rect class="cube active col-35" x="805" y="138" width="18" height="18" />
    <rect class="cube" x="828" y="138" width="18" height="18" />
    <rect class="cube" x="851" y="138" width="18" height="18" />
    <rect class="cube" x="0" y="161" width="18" height="18" />
    <rect class="cube" x="23" y="161" width="18" height="18" />
    <rect class="cube" x="46" y="161" width="18" height="18" />
    <rect class="cube" x="69" y="161" width="18" height="18" />
    <rect class="cube" x="92" y="161" width="18" height="18" />
    <rect class="cube" x="115" y="161" width="18" height="18" />
    <rect class="cube" x="138" y="161" width="18" height="18" />
    <rect class="cube" x="161" y="161" width="18" height="18" />
    <rect class="cube" x="184" y="161" width="18" height="18" />
    <rect class="cube" x="207" y="161" width="18" height="18" />
    <rect class="cube" x="230" y="161" width="18" height="18" />
    <rect class="cube" x="253" y="161" width="18" height="18" />
    <rect class="cube" x="276" y="161" width="18" height="18" />
    <rect class="cube" x="299" y="161" width="18" height="18" />
    <rect class="cube" x="322" y="161" width="18" height="18" />
    <rect class="cube" x="345" y="161" width="18" height="18" />
    <rect class="cube" x="368" y="161" width="18" height="18" />
    <rect class="cube" x="391" y="161" width="18" height="18" />
    <rect class="cube" x="414" y="161" width="18" height="18" />
    <rect class="cube" x="437" y="161" width="18" height="18" />
    <rect class="cube" x="460" y="161" width="18" height="18" />
    <rect class="cube" x="483" y="161" width="18" height="18" />
    <rect class="cube" x="506" y="161" width="18" height="18" />
    <rect class="cube" x="529" y="161" width="18" height="18" />
    <rect class="cube" x="552" y="161" width="18" height="18" />
    <rect class="cube" x="575" y="161" width="18" height="18" />
    <rect class="cube" x="598" y="161" width="18" height="18" />
    <rect class="cube" x="621" y="161" width="18" height="18" />
    <rect class="cube" x="644" y="161" width="18" height="18" />
    <rect class="cube" x="667" y="161" width="18" height="18" />
    <rect class="cube" x="690" y="161" width="18" height="18" />
    <rect class="cube" x="713" y="161" width="18" height="18" />
    <rect class="cube" x="736" y="161" width="18" height="18" />
    <rect class="cube" x="759" y="161" width="18" height="18" />
    <rect class="cube" x="782" y="161" width="18" height="18" />
    <rect class="cube" x="805" y="161" width="18" height="18" />
    <rect class="cube" x="828" y="161" width="18" height="18" />
    <rect class="cube" x="851" y="161" width="18" height="18" />
  </g>
</svg>
